PathFileType	4	(X/Y/Z)	0_coords_data.trc
DataRate	CameraRate	NumFrames	NumMarkers	Units	OrigDataRate	OrigDataStartFrame	OrigNumFrames
30.0	30.0	6	21	m	30.0	29	57
Frame#	Time	THUMB_TIP	THUMB_IP	THUMB_MCP	THUMB_CMC	INDEX_TIP	INDEX_DIP	INDEX_PIP	INDEX_MCP	MIDDLE_TIP	MIDDLE_DIP	MIDDLE_PIP	MIDDLE_MCP	RING_TIP	RING_DIP	RING_PIP	RING_MCP	PINKY_TIP	PINKY_DIP	PINKY_PIP	PINKY_MCP	WRIST
X1	Y1	Z1	X2	Y2	Z2	X3	Y3	Z3	X4	Y4	Z4	X5	Y5	Z5	X6	Y6	Z6	X7	Y7	Z7	X8	Y8	Z8	X9	Y9	Z9	X10	Y10	Z10	X11	Y11	Z11	X12	Y12	Z12	X13	Y13	Z13	X14	Y14	Z14	X15	Y15	Z15	X16	Y16	Z16	X17	Y17	Z17	X18	Y18	Z18	X19	Y19	Z19	X20	Y20	Z20	X21	Y21	Z21
28	0.9333333333333333	0.002309439897537231	-0.10731999969482423	0.9869329833984375	0.003455219984054565	-0.08006520080566407	0.9980009765625	-0.008771030426025391	-0.062154701232910156	1.0220900268554687	-0.011300000190734863	-0.023846099853515625	1.037489990234375	-0.00266535997390747	-0.029201000213623048	1.0105900268554688	0.01387030029296875	-0.028249500274658203	0.9981959838867187	0.018172599792480468	-0.03215330123901367	0.9728820190429688	-0.02575230026245117	-0.03678419876098633	0.9751010131835938	0.003717550039291382	-0.013192399978637696	1.0106900024414063	0.01454069995880127	-0.009531100273132325	1.0008900146484374	0.020550399780273437	-0.007995540142059327	0.97122802734375	-0.02733919906616211	-0.010345800399780274	0.9700120239257812	-0.000335052996873855	0.00256983995437622	1.01447998046875	0.011712499618530273	0.007993189811706543	1.00777001953125	0.021544399261474608	0.01424180030822754	0.9816580200195313	-0.02528260040283203	0.015325200080871583	0.9743489990234375	-0.0035078999996185304	0.020594900131225585	1.01327001953125	0.009671440124511719	0.026346300125122072	1.0028599853515625	0.012173100471496582	0.03601639938354492	0.9841589965820312	-0.024583799362182617	0.038283100128173826	0.9822210083007813	-0.033281299591064455	0.0034689300060272207	1.0563299560546875
29	0.9666666666666667	0.007924799919128417	-0.1065	0.9866489868164062	0.005971049785614014	-0.0797916030883789	0.9991179809570313	-0.00804969024658203	-0.06267390060424805	1.0230800170898438	-0.011383299827575683	-0.024458400726318358	1.0379100341796874	-0.001656440019607544	-0.03042329978942871	1.01077001953125	0.014706000328063965	-0.02996470069885254	0.9977420043945312	0.01753339958190918	-0.03438589859008789	0.9721420288085938	-0.026589199066162108	-0.03814820098876953	0.9757210083007812	0.00413325023651123	-0.014708800315856934	1.0113800048828125	0.015441200256347657	-0.011387100219726562	1.0002100219726562	0.020347200393676757	-0.010459400177001954	0.97027197265625	-0.02770680046081543	-0.01177929973602295	0.9704030151367188	4.3134201318025005e-05	0.001268229961395263	1.0145599975585937	0.012725399971008302	0.006252759933471679	1.00625	0.021728300094604493	0.012160699844360351	0.9798400268554688	-0.02548870086669922	0.013783300399780273	0.9743109741210938	-0.0025712499618530268	0.019208000183105468	1.011760009765625	0.010603699684143066	0.0244906005859375	1.0011400146484375	0.012628999710083008	0.0340260009765625	0.98193798828125	-0.02406019973754883	0.036938499450683594	0.9818400268554688	-0.03387279891967773	0.0032764999866485593	1.0571099853515624
30	1.0	0.011096099853515624	-0.10597499847412109	0.9876010131835937	0.0072819900512695315	-0.07972959899902343	1.0005999755859376	-0.007571340084075928	-0.06287220001220703	1.024530029296875	-0.011085300445556641	-0.024712600708007813	1.038699951171875	-0.00024172399938106502	-0.03165449905395508	1.009530029296875	0.016567800521850588	-0.03135499954223633	0.9966649780273438	0.016728500366210937	-0.03646900177001953	0.9705150146484375	-0.02709950065612793	-0.0394463005065918	0.9765590209960937	0.004705019950866699	-0.01602309989929199	1.0113300170898438	0.017231700897216796	-0.012871999740600586	0.9990430297851562	0.020272300720214843	-0.012719499588012695	0.9685330200195312	-0.028059200286865236	-0.01314080047607422	0.9707760009765625	0.0005835160017013551	0.0005119330286979671	1.01447998046875	0.01409529972076416	0.004975800037384033	1.0040800170898438	0.021858800888061525	0.010212900161743164	0.97664697265625	-0.025845199584960937	0.012234800338745118	0.974114990234375	-0.000792367994785308	0.0181560001373291	1.0096099853515625	0.012002099990844726	0.023158300399780275	0.998541015625	0.01270930004119873	0.03245510101318359	0.9789400024414062	-0.024004199981689452	0.03548870086669922	0.981156982421875	-0.034319400787353516	0.003144809961318969	1.057760009765625
31	1.0333333333333334	0.0111003999710083	-0.1057770004272461	0.988447021484375	0.007089439868927002	-0.07966629791259766	1.001489990234375	-0.00806272029876709	-0.0627942008972168	1.0255799560546874	-0.010826899528503417	-0.024848100662231445	1.039199951171875	0.002846790075302124	-0.03193720054626465	1.0061099853515625	0.020691200256347655	-0.03305410003662109	0.9931420288085937	0.015119400024414063	-0.03890769958496094	0.9672960205078125	-0.027569799423217772	-0.040417701721191406	0.9775050048828124	0.007140970230102539	-0.017225299835205078	1.0103900146484375	0.021148300170898436	-0.014445199966430664	0.9960339965820313	0.019569599151611328	-0.015330599784851075	0.9647459716796875	-0.028460100173950197	-0.014090800285339355	0.971323974609375	0.003748270034790039	-0.000379536986351013	1.0131900024414062	0.017938600540161134	0.0034361999034881593	1.0007000122070313	0.021719900131225586	0.008086649894714356	0.9716439819335938	-0.026083999633789063	0.010939499855041505	0.9742949829101563	0.002393579959869384	0.01667919921875	1.0077899780273438	0.015603599548339843	0.021589599609375	0.9942750244140625	0.013256500244140625	0.030851200103759767	0.9751229858398438	-0.023237499237060547	0.034104198455810544	0.9806740112304687	-0.034525699615478515	0.003633729934692383	1.058300048828125
32	1.0666666666666667	0.01077239990234375	-0.10551799774169922	0.9895960083007812	0.006788390159606934	-0.07940110015869141	1.0025	-0.008245809555053711	-0.06265119934082031	1.0266700439453125	-0.010534999847412109	-0.025034999847412108	1.03968994140625	0.01845829963684082	-0.03257659912109375	1.0083099975585939	0.02430649948120117	-0.03629399871826172	0.9873980102539063	0.012296899795532227	-0.042335201263427734	0.9630390014648438	-0.02874570083618164	-0.04133940124511719	0.9788980102539062	0.01328950023651123	-0.019073600769042968	1.0080900268554687	0.02654229927062988	-0.017712900161743164	0.9892459716796875	0.01739870071411133	-0.018935300827026366	0.9595280151367187	-0.02928580093383789	-0.01520400047302246	0.9721699829101562	0.010134099960327148	-0.001906800031661987	1.0099000244140626	0.024045499801635742	0.0007212200164794921	0.9943569946289063	0.02041510009765625	0.005067490100860596	0.9648150024414063	-0.02628860092163086	0.009398449897766113	0.9745830078125	0.008773590087890625	0.014943699836730957	1.0033900146484376	0.019866899490356447	0.019452999114990235	0.9887550048828125	0.013420000076293945	0.02939389991760254	0.9711589965820312	-0.021777000427246094	0.03265859985351562	0.9801309814453125	-0.03472060012817383	0.004274940013885498	1.0584000244140626
33	1.1	0.010226300239562988	-0.10546600341796875	0.9907849731445313	0.006076449871063232	-0.0794644012451172	1.0036500244140625	-0.009201160430908203	-0.06277040100097656	1.02781005859375	-0.011308600425720215	-0.02559429931640625	1.0406199951171875	0.0253971004486084	-0.03481050109863281	1.00347998046875	0.02648740005493164	-0.03965290069580078	0.9807520141601562	0.009559109687805175	-0.04519820022583008	0.9603159790039062	-0.02972559928894043	-0.042299198150634765	0.980051025390625	0.02087380027770996	-0.021099300384521485	1.0023400268554687	0.029507699966430663	-0.020722900390625	0.9829879760742187	0.015000699996948242	-0.021670499801635743	0.955739013671875	-0.030158899307250978	-0.016163799285888673	0.9729520263671875	0.01838800048828125	-0.003547489881515503	1.0036199951171876	0.03006789970397949	-0.001009310007095337	0.9850709838867188	0.01866130065917969	0.003582030057907104	0.9587490234375	-0.026078699111938476	0.008243029594421386	0.974614990234375	0.014860600471496581	0.012151900291442872	0.9969439697265625	0.023183799743652343	0.019127899169921875	0.9827509765625	0.012836400032043458	0.029539199829101564	0.9671300048828125	-0.020559799194335936	0.03165110015869141	0.9795770263671875	-0.03529850006103516	0.004517849922180176	1.058780029296875
